# xmcd
#
# Track frame offsets:
#	150
#	19276
#	37532
#	54598
#	70034
#	85327
#	104816
#	123829
#	144040
#	162259
#
# Disc length: 2431 seconds
# Revision: 0
# Processed by: cddbd v1.5.2PL0 Copyright (c) Steve Scherf et al.
# Submitted via: dBpowerAMP V12.0
#
DISCID=79097d0a
DTITLE=Belle Roscoe - Belle Roscoe
DYEAR=2006
DGENRE=Rock
TTITLE0=Restless Soldier
TTITLE1=Shot Gun Love
TTITLE2=Young and Fearless
TTITLE3=Come Back Jimmy
TTITLE4=Camp Fire Song
TTITLE5=Wrong Side
TTITLE6=Looking Glass
TTITLE7=Strange People
TTITLE8=Dis-Moi (Tell Me)
TTITLE9=Paris
EXTD=
EXTT0=
EXTT1=
EXTT2=
EXTT3=
EXTT4=
EXTT5=
EXTT6=
EXTT7=
EXTT8=
EXTT9=
PLAYORDER=
